# xmcd
#
# Track frame offsets: 
#        150
#        16277
#        29177
#        43360
#        57990
#        71120
#        87165
#        99312
#        123462
#        142550
#        154350
#        168620
#
# Disc length: 2446 seconds
#
# Revision: 0
# Processed by: cddbd v1.5.2PL0 Copyright (c) Steve Scherf et al.
# Submitted via: ExactAudioCopy v0.99pb4
#
DISCID=a8098c0c
DTITLE=The Chairmen of the Board - In Session
DYEAR=1900
DGENRE=Soul
TTITLE0=Chairmen of the Board
TTITLE1=Everything's Tuesday
TTITLE2=Pay To The Piper
TTITLE3=The Twelfth of Never
TTITLE4=All We Need Is Understanding
TTITLE5=Patches
TTITLE6=It Was Almost Something
TTITLE7=Bridge Over Troubled Water
TTITLE8=Hanging On To A Memory
TTITLE9=I Can't Find Myself
TTITLE10=When Will She Tell Me She Needs Me
TTITLE11=Chidlren of Today
EXTD=
EXTT0=
EXTT1=
EXTT2=
EXTT3=
EXTT4=
EXTT5=
EXTT6=
EXTT7=
EXTT8=
EXTT9=
EXTT10=
EXTT11=
PLAYORDER=
